<svg xmlns="http://www.w3.org/2000/svg" viewBox="0 0 154.4 154.4"><defs><style>.cls-1{fill:#f1f1f1;}.cls-2{fill:#b9bbbd;}</style></defs><title>_Fichier 3ad</title><g id="Calque_2" data-name="Calque 2"><g id="Calque_1-2" data-name="Calque 1"><rect class="cls-1" width="154.4" height="154.4"/><path class="cls-2" d="M78.56,96.43,73.3,84.84H48.87L43.61,96.43H40.42L59.7,54.74h2.95L81.93,96.43ZM61.12,58.11l-10.95,24H72Z"/><path class="cls-2" d="M111.09,96.43V89.69a27.17,27.17,0,0,1-2.22,2.84,14.19,14.19,0,0,1-2.72,2.36,14,14,0,0,1-3.37,1.63,13,13,0,0,1-4.11.62,14.1,14.1,0,0,1-5.35-1.06A14.5,14.5,0,0,1,88.61,93a15.32,15.32,0,0,1-3.34-4.94A16.51,16.51,0,0,1,84,81.47v-.12a16.51,16.51,0,0,1,1.27-6.59,15.68,15.68,0,0,1,3.34-5,14.64,14.64,0,0,1,4.71-3.13,13.77,13.77,0,0,1,5.35-1.1,13.94,13.94,0,0,1,4.14.59,13.48,13.48,0,0,1,3.4,1.6,15.46,15.46,0,0,1,2.72,2.31,20.46,20.46,0,0,1,2.16,2.72V53.26H114V96.43Zm.17-15.14a13.21,13.21,0,0,0-1-5.29,12.55,12.55,0,0,0-6.7-6.71,11.66,11.66,0,0,0-4.6-1,12.15,12.15,0,0,0-4.65.89,10.92,10.92,0,0,0-3.76,2.54,11.89,11.89,0,0,0-2.52,4,14.87,14.87,0,0,0-.92,5.41v.12a14.47,14.47,0,0,0,1,5.38,12.22,12.22,0,0,0,2.57,4.11,11.65,11.65,0,0,0,12.93,2.58,12.38,12.38,0,0,0,3.94-2.67,12.9,12.9,0,0,0,3.79-9.34Z"/></g></g></svg>